{"accessors":[{"bufferView":0,"componentType":5126,"count":3792,"max":[32.0,4.0,16.0],"min":[0.0,0.0,0.0],"type":"VEC3"},{"bufferView":1,"componentType":5126,"count":3792,"type":"VEC2"},{"bufferView":2,"componentType":5126,"count":3792,"type":"VEC3"},{"bufferView":3,"componentType":5123,"count":2028,"type":"SCALAR"},{"bufferView":4,"componentType":5126,"count":192,"max":[19.100000381469727,10.0,7.300000190734863],"min":[12.899999618530273,4.0,6.699999809265137],"type":"VEC3"},{"bufferView":5,"componentType":5126,"count":192,"type":"VEC2"},{"bufferView":6,"componentType":5126,"count":192,"type":"VEC3"},{"bufferView":7,"componentType":5123,"count":252,"type":"SCALAR"}],"asset":{"generator":"Total Editor 3","version":"2.0"},"bufferViews":[{"buffer":0,"byteLength":45504,"byteOffset":0,"target":34962},{"buffer":0,"byteLength":30336,"byteOffset":45504,"target":34962},{"buffer":0,"byteLength":45504,"byteOffset":75840,"target":34962},{"buffer":0,"byteLength":4056,"byteOffset":121344,"target":34963},{"buffer":0,"byteLength":2304,"byteOffset":125400,"target":34962},{"buffer":0,"byteLength":1536,"byteOffset":127704,"target":34962},{"buffer":0,"byteLength":2304,"byteOffset":129240,"target":34962},{"buffer":0,"byteLength":504,"byteOffset":131544,"target":34963}],"buffers":[{"byteLength":132048,"uri":"data:application/octet-stream;base64,"}],"images":[{"uri":"assets/textures/tiles/concrete.png"},{"uri":"assets/textures/tiles/end_of_level.png"}],"materials":[{"name":"assets/textures/tiles/concrete.png","pbrMetallicRoughness":{"baseColorTexture":{"index":0,"texCoord":0},"metallicFactor":0.0,"roughnessFactor":1.0}},{"name":"assets/textures/tiles/end_of_level.png","pbrMetallicRoughness":{"baseColorTexture":{"index":1,"texCoord":0},"metallicFactor":0.0,"roughnessFactor":1.0}}],"meshes":[{"primitives":[{"attributes":{"NORMAL":2,"POSITION":0,"TEXCOORD_0":1},"indices":3,"material":0,"mode":4},{"attributes":{"NORMAL":6,"POSITION":4,"TEXCOORD_0":5},"indices":7,"material":1,"mode":4}]}],"nodes":[{"mesh":0,"name":"map"}],"samplers":[{"magFilter":9728,"minFilter":9984,"wrapS":10497,"wrapT":10497}],"scene":0,"scenes":[{"nodes":[0]}],"textures":[{"sampler":0,"source":0},{"sampler":0,"source":1}]}