{"accessors":[{"bufferView":0,"componentType":5126,"count":2672,"max":[32.0,2.0,16.0],"min":[0.0,0.0,0.0],"type":"VEC3"},{"bufferView":1,"componentType":5126,"count":2672,"type":"VEC2"},{"bufferView":2,"componentType":5126,"count":2672,"type":"VEC3"},{"bufferView":3,"componentType":5123,"count":1584,"type":"SCALAR"},{"bufferView":4,"componentType":5126,"count":400,"max":[30.0,2.0,16.0],"min":[2.0,0.0,2.0],"type":"VEC3"},{"bufferView":5,"componentType":5126,"count":400,"type":"VEC2"},{"bufferView":6,"componentType":5126,"count":400,"type":"VEC3"},{"bufferView":7,"componentType":5123,"count":240,"type":"SCALAR"}],"asset":{"generator":"Total Editor 3","version":"2.0"},"bufferViews":[{"buffer":0,"byteLength":32064,"byteOffset":0,"target":34962},{"buffer":0,"byteLength":21376,"byteOffset":32064,"target":34962},{"buffer":0,"byteLength":32064,"byteOffset":53444,"target":34962},{"buffer":0,"byteLength":3168,"byteOffset":85508,"target":34963},{"buffer":0,"byteLength":4800,"byteOffset":88684,"target":34962},{"buffer":0,"byteLength":3200,"byteOffset":93488,"target":34962},{"buffer":0,"byteLength":4800,"byteOffset":96692,"target":34962},{"buffer":0,"byteLength":480,"byteOffset":101492,"target":34963}],"buffers":[{"byteLength":101972,"uri":"data:application/octet-stream;base64,"}],"images":[{"uri":"assets/textures/tiles/concrete.png"},{"uri":"assets/textures/tiles/player_spawn_point.png"}],"materials":[{"name":"assets/textures/tiles/concrete.png","pbrMetallicRoughness":{"baseColorTexture":{"index":0,"texCoord":0},"metallicFactor":0.0,"roughnessFactor":1.0}},{"name":"assets/textures/tiles/player_spawn_point.png","pbrMetallicRoughness":{"baseColorTexture":{"index":1,"texCoord":0},"metallicFactor":0.0,"roughnessFactor":1.0}}],"meshes":[{"primitives":[{"attributes":{"NORMAL":2,"POSITION":0,"TEXCOORD_0":1},"indices":3,"material":0,"mode":4},{"attributes":{"NORMAL":6,"POSITION":4,"TEXCOORD_0":5},"indices":7,"material":1,"mode":4}]}],"nodes":[{"mesh":0,"name":"map"}],"samplers":[{"magFilter":9728,"minFilter":9984,"wrapS":10497,"wrapT":10497}],"scene":0,"scenes":[{"nodes":[0]}],"textures":[{"sampler":0,"source":0},{"sampler":0,"source":1}]}