{"accessors":[{"bufferView":0,"componentType":5126,"count":128,"max":[36.0,2.0,64.0],"min":[28.0,0.0,0.0],"type":"VEC3"},{"bufferView":1,"componentType":5126,"count":128,"type":"VEC2"},{"bufferView":2,"componentType":5126,"count":128,"type":"VEC3"},{"bufferView":3,"componentType":5123,"count":96,"type":"SCALAR"},{"bufferView":4,"componentType":5126,"count":32,"max":[36.0,2.0,64.0],"min":[28.0,0.0,62.0],"type":"VEC3"},{"bufferView":5,"componentType":5126,"count":32,"type":"VEC2"},{"bufferView":6,"componentType":5126,"count":32,"type":"VEC3"},{"bufferView":7,"componentType":5123,"count":48,"type":"SCALAR"},{"bufferView":8,"componentType":5126,"count":32,"max":[36.0,2.0,2.0],"min":[28.0,0.0,0.0],"type":"VEC3"},{"bufferView":9,"componentType":5126,"count":32,"type":"VEC2"},{"bufferView":10,"componentType":5126,"count":32,"type":"VEC3"},{"bufferView":11,"componentType":5123,"count":48,"type":"SCALAR"},{"bufferView":12,"componentType":5126,"count":1416,"max":[35.099998474121094,10.0,57.099998474121094],"min":[24.899999618530273,0.0,4.900000095367432],"type":"VEC3"},{"bufferView":13,"componentType":5126,"count":1416,"type":"VEC2"},{"bufferView":14,"componentType":5126,"count":1416,"type":"VEC3"},{"bufferView":15,"componentType":5123,"count":1620,"type":"SCALAR"},{"bufferView":16,"componentType":5126,"count":1344,"max":[64.0,2.0,64.0],"min":[0.0,0.0,0.0],"type":"VEC3"},{"bufferView":17,"componentType":5126,"count":1344,"type":"VEC2"},{"bufferView":18,"componentType":5126,"count":1344,"type":"VEC3"},{"bufferView":19,"componentType":5123,"count":1368,"type":"SCALAR"}],"asset":{"generator":"Total Editor 3","version":"2.0"},"bufferViews":[{"buffer":0,"byteLength":1536,"byteOffset":0,"target":34962},{"buffer":0,"byteLength":1024,"byteOffset":1536,"target":34962},{"buffer":0,"byteLength":1536,"byteOffset":2564,"target":34962},{"buffer":0,"byteLength":192,"byteOffset":4100,"target":34963},{"buffer":0,"byteLength":384,"byteOffset":4300,"target":34962},{"buffer":0,"byteLength":256,"byteOffset":4688,"target":34962},{"buffer":0,"byteLength":384,"byteOffset":4944,"target":34962},{"buffer":0,"byteLength":96,"byteOffset":5328,"target":34963},{"buffer":0,"byteLength":384,"byteOffset":5424,"target":34962},{"buffer":0,"byteLength":256,"byteOffset":5808,"target":34962},{"buffer":0,"byteLength":384,"byteOffset":6068,"target":34962},{"buffer":0,"byteLength":96,"byteOffset":6452,"target":34963},{"buffer":0,"byteLength":16992,"byteOffset":6556,"target":34962},{"buffer":0,"byteLength":11328,"byteOffset":23552,"target":34962},{"buffer":0,"byteLength":16992,"byteOffset":34888,"target":34962},{"buffer":0,"byteLength":3240,"byteOffset":51880,"target":34963},{"buffer":0,"byteLength":16128,"byteOffset":55124,"target":34962},{"buffer":0,"byteLength":10752,"byteOffset":71256,"target":34962},{"buffer":0,"byteLength":16128,"byteOffset":82008,"target":34962},{"buffer":0,"byteLength":2736,"byteOffset":98136,"target":34963}],"buffers":[{"byteLength":100872,"uri":"data:application/octet-stream;base64,"}],"images":[{"uri":"assets/textures/tiles/concrete.png"},{"uri":"assets/textures/tiles/start.png"},{"uri":"assets/textures/tiles/finish.png"},{"uri":"assets/textures/tiles/pole.png"},{"uri":"assets/textures/tiles/bricks.png"}],"materials":[{"name":"assets/textures/tiles/concrete.png","pbrMetallicRoughness":{"baseColorTexture":{"index":0,"texCoord":0},"metallicFactor":0.0,"roughnessFactor":1.0}},{"name":"assets/textures/tiles/start.png","pbrMetallicRoughness":{"baseColorTexture":{"index":1,"texCoord":0},"metallicFactor":0.0,"roughnessFactor":1.0}},{"name":"assets/textures/tiles/finish.png","pbrMetallicRoughness":{"baseColorTexture":{"index":2,"texCoord":0},"metallicFactor":0.0,"roughnessFactor":1.0}},{"name":"assets/textures/tiles/pole.png","pbrMetallicRoughness":{"baseColorTexture":{"index":3,"texCoord":0},"metallicFactor":0.0,"roughnessFactor":1.0}},{"name":"assets/textures/tiles/bricks.png","pbrMetallicRoughness":{"baseColorTexture":{"index":4,"texCoord":0},"metallicFactor":0.0,"roughnessFactor":1.0}}],"meshes":[{"primitives":[{"attributes":{"NORMAL":2,"POSITION":0,"TEXCOORD_0":1},"indices":3,"material":0,"mode":4},{"attributes":{"NORMAL":6,"POSITION":4,"TEXCOORD_0":5},"indices":7,"material":1,"mode":4},{"attributes":{"NORMAL":10,"POSITION":8,"TEXCOORD_0":9},"indices":11,"material":2,"mode":4},{"attributes":{"NORMAL":14,"POSITION":12,"TEXCOORD_0":13},"indices":15,"material":3,"mode":4},{"attributes":{"NORMAL":18,"POSITION":16,"TEXCOORD_0":17},"indices":19,"material":4,"mode":4}]}],"nodes":[{"mesh":0,"name":"map"}],"samplers":[{"magFilter":9728,"minFilter":9984,"wrapS":10497,"wrapT":10497}],"scene":0,"scenes":[{"nodes":[0]}],"textures":[{"sampler":0,"source":0},{"sampler":0,"source":1},{"sampler":0,"source":2},{"sampler":0,"source":3},{"sampler":0,"source":4}]}